<svg id="svg" version="1.1" xmlns="http://www.w3.org/2000/svg" xmlns:xlink="http://www.w3.org/1999/xlink" width="400" height="97.96323894684551" viewBox="0, 0, 400,97.96323894684551"><g id="svgg"><path id="path0" d="M122.917 19.260 C 122.733 19.286,121.815 19.397,120.875 19.506 C 119.935 19.615,119.167 19.761,119.167 19.829 C 119.167 19.898,118.811 20.003,118.376 20.063 C 117.233 20.220,115.471 20.681,115.083 20.924 C 114.900 21.040,114.487 21.189,114.167 21.256 C 113.303 21.436,109.816 23.155,108.716 23.943 C 107.606 24.738,106.187 25.895,105.583 26.498 C 104.548 27.530,103.500 28.865,103.500 29.151 C 103.500 29.251,103.423 29.333,103.330 29.333 C 103.236 29.333,103.070 29.540,102.960 29.792 C 102.850 30.044,102.596 30.512,102.395 30.833 C 102.194 31.154,101.893 31.867,101.727 32.417 C 101.562 32.967,101.372 33.456,101.305 33.504 C 100.541 34.060,100.501 40.882,101.252 42.583 C 101.373 42.858,101.624 43.438,101.809 43.872 C 101.994 44.306,102.338 44.913,102.573 45.221 C 102.808 45.529,103.000 45.860,103.000 45.955 C 103.000 46.050,103.188 46.251,103.417 46.401 C 103.646 46.551,103.833 46.763,103.833 46.872 C 103.833 47.087,105.555 48.769,106.500 49.479 C 106.821 49.720,107.158 50.000,107.250 50.103 C 107.342 50.205,107.674 50.430,107.989 50.603 C 108.304 50.775,108.698 51.048,108.864 51.208 C 109.031 51.369,109.265 51.500,109.385 51.500 C 109.505 51.500,109.749 51.632,109.927 51.793 C 110.105 51.955,110.625 52.273,111.083 52.502 C 111.542 52.730,111.954 52.964,112.000 53.023 C 112.046 53.081,112.571 53.334,113.167 53.583 C 113.763 53.833,114.287 54.089,114.333 54.153 C 114.379 54.216,114.829 54.442,115.333 54.655 C 115.837 54.868,116.287 55.094,116.333 55.159 C 116.379 55.223,116.848 55.452,117.375 55.668 C 117.902 55.884,118.333 56.116,118.333 56.182 C 118.333 56.249,118.677 56.470,119.097 56.674 C 119.518 56.877,120.033 57.202,120.243 57.397 C 120.452 57.591,120.802 57.908,121.020 58.102 C 123.377 60.192,122.764 63.810,119.833 65.112 C 119.513 65.254,119.209 65.437,119.158 65.517 C 118.697 66.248,112.485 66.740,108.630 66.351 C 106.557 66.142,103.963 65.684,103.833 65.503 C 103.787 65.440,103.094 65.208,102.292 64.989 C 101.490 64.769,100.833 64.538,100.833 64.475 C 100.833 64.413,100.308 64.199,99.667 64.000 C 99.025 63.801,98.500 63.579,98.500 63.506 C 98.500 63.432,98.369 63.331,98.208 63.280 C 98.048 63.230,97.594 63.070,97.199 62.925 C 96.171 62.548,96.112 62.666,95.684 65.918 C 95.479 67.476,95.241 68.938,95.156 69.167 C 94.992 69.607,94.167 75.097,94.167 75.745 C 94.167 76.077,94.335 76.174,95.500 76.510 C 96.233 76.722,96.833 76.945,96.833 77.005 C 96.833 77.066,97.677 77.283,98.708 77.488 C 99.740 77.693,100.703 77.923,100.850 78.000 C 101.596 78.388,108.483 79.000,112.083 78.998 C 115.630 78.996,121.366 78.423,122.150 77.992 C 122.297 77.911,123.092 77.684,123.917 77.486 C 124.742 77.288,125.454 77.072,125.500 77.005 C 125.546 76.938,126.085 76.717,126.698 76.515 C 127.311 76.312,127.836 76.092,127.864 76.024 C 127.893 75.957,128.329 75.727,128.833 75.513 C 129.337 75.300,129.787 75.078,129.833 75.021 C 129.879 74.964,130.254 74.737,130.667 74.518 C 131.079 74.299,131.608 73.942,131.842 73.726 C 132.077 73.510,132.331 73.333,132.408 73.333 C 132.553 73.333,133.083 72.857,134.296 71.635 C 135.502 70.420,135.774 70.103,136.095 69.542 C 136.266 69.244,136.459 69.000,136.524 69.000 C 136.590 69.000,136.817 68.644,137.030 68.208 C 137.243 67.773,137.495 67.333,137.590 67.231 C 137.686 67.129,137.910 66.604,138.089 66.065 C 138.269 65.525,138.459 65.046,138.512 65.000 C 139.201 64.404,139.597 58.023,139.093 55.645 C 138.836 54.431,137.850 52.183,137.330 51.625 C 137.149 51.430,137.000 51.197,137.000 51.107 C 137.000 50.854,134.893 48.662,133.773 47.750 C 133.435 47.475,133.027 47.135,132.865 46.994 C 132.703 46.853,132.274 46.557,131.911 46.336 C 131.547 46.115,131.212 45.887,131.167 45.829 C 130.999 45.618,128.516 44.325,124.318 42.264 C 120.453 40.366,119.306 39.597,117.955 38.000 C 117.281 37.204,117.206 35.642,117.803 34.821 C 118.222 34.244,119.693 32.833,119.876 32.833 C 119.963 32.833,120.403 32.648,120.854 32.422 C 122.949 31.370,132.907 31.286,133.667 32.315 C 133.712 32.377,134.162 32.526,134.667 32.646 C 135.801 32.916,136.723 33.216,136.833 33.349 C 136.879 33.405,137.404 33.618,137.999 33.822 C 138.594 34.027,139.139 34.282,139.210 34.389 C 139.496 34.819,139.779 33.944,140.073 31.721 C 140.241 30.454,140.434 29.342,140.503 29.250 C 140.572 29.158,140.836 27.602,141.091 25.792 C 141.346 23.981,141.617 22.500,141.694 22.500 C 142.385 22.500,141.761 21.378,140.958 21.177 C 140.477 21.056,140.008 20.903,139.917 20.836 C 139.700 20.679,137.817 20.225,136.750 20.073 C 136.292 20.007,135.878 19.894,135.831 19.822 C 135.546 19.386,125.192 18.935,122.917 19.260 M77.926 22.250 C 77.760 23.488,77.572 24.500,77.508 24.500 C 77.445 24.500,77.219 25.831,77.006 27.458 C 76.793 29.085,76.567 30.454,76.504 30.500 C 76.441 30.546,76.221 31.783,76.016 33.250 C 75.811 34.717,75.578 36.067,75.499 36.250 C 75.420 36.433,75.148 38.046,74.895 39.833 C 74.642 41.621,74.388 43.121,74.330 43.167 C 74.272 43.212,74.047 44.525,73.829 46.083 C 73.612 47.642,73.386 48.954,73.328 49.000 C 73.270 49.046,73.047 50.358,72.833 51.917 C 72.620 53.475,72.390 54.788,72.323 54.833 C 72.256 54.879,72.031 56.192,71.822 57.750 C 71.613 59.308,71.392 60.621,71.332 60.667 C 71.272 60.712,71.055 61.950,70.849 63.417 C 70.644 64.883,70.410 66.233,70.329 66.417 C 70.249 66.600,69.979 68.212,69.729 70.000 C 69.480 71.787,69.227 73.287,69.167 73.333 C 69.046 73.425,68.499 77.148,68.500 77.875 L 68.500 78.333 76.481 78.333 L 84.461 78.333 84.562 77.958 C 84.617 77.752,84.663 77.377,84.664 77.125 C 84.666 76.873,84.728 76.667,84.802 76.667 C 84.877 76.667,85.116 75.335,85.334 73.708 C 85.553 72.081,85.782 70.712,85.845 70.667 C 85.907 70.621,86.131 69.346,86.341 67.833 C 86.552 66.321,86.775 65.046,86.837 65.000 C 86.899 64.954,87.128 63.642,87.345 62.083 C 87.562 60.525,87.785 59.212,87.839 59.167 C 87.894 59.121,88.113 57.846,88.326 56.333 C 88.540 54.821,88.770 53.508,88.838 53.417 C 88.906 53.325,89.167 51.750,89.417 49.917 C 89.667 48.083,89.926 46.546,89.993 46.500 C 90.060 46.454,90.291 45.104,90.508 43.500 C 90.724 41.896,90.951 40.546,91.013 40.500 C 91.075 40.454,91.297 39.179,91.508 37.667 C 91.719 36.154,91.940 34.879,92.000 34.833 C 92.061 34.787,92.289 33.475,92.508 31.917 C 92.727 30.358,92.951 29.046,93.007 29.000 C 93.063 28.954,93.281 27.679,93.490 26.167 C 93.700 24.654,93.928 23.342,93.997 23.250 C 94.114 23.095,94.500 20.788,94.500 20.243 C 94.500 20.033,93.384 20.000,86.364 20.000 L 78.228 20.000 77.926 22.250 M55.058 20.667 C 55.003 20.942,54.902 21.167,54.832 21.167 C 54.763 21.167,54.495 21.823,54.237 22.625 C 53.979 23.427,53.710 24.124,53.639 24.173 C 53.569 24.223,53.350 24.785,53.153 25.423 C 52.957 26.061,52.740 26.621,52.673 26.667 C 52.605 26.712,52.414 27.161,52.248 27.663 C 52.083 28.166,51.778 28.916,51.571 29.330 C 51.364 29.744,51.142 30.368,51.077 30.717 C 51.013 31.065,50.874 31.440,50.770 31.550 C 50.665 31.660,50.399 32.275,50.178 32.917 C 49.957 33.558,49.685 34.233,49.573 34.417 C 49.462 34.600,49.206 35.294,49.005 35.958 C 48.804 36.623,48.588 37.167,48.526 37.167 C 48.464 37.167,48.228 37.767,48.000 38.500 C 47.772 39.233,47.537 39.833,47.476 39.833 C 47.415 39.833,47.201 40.377,46.999 41.042 C 46.797 41.706,46.576 42.287,46.508 42.333 C 46.439 42.379,46.211 42.942,46.000 43.583 C 45.789 44.225,45.562 44.788,45.494 44.833 C 45.426 44.879,45.211 45.436,45.015 46.070 C 44.820 46.705,44.596 47.305,44.518 47.404 C 44.439 47.503,44.166 48.183,43.910 48.917 C 43.655 49.650,43.390 50.288,43.323 50.333 C 43.256 50.379,43.036 50.960,42.834 51.625 C 42.633 52.290,42.418 52.833,42.357 52.833 C 42.297 52.833,42.061 53.433,41.833 54.167 C 41.606 54.900,41.369 55.500,41.307 55.500 C 41.244 55.500,41.027 56.063,40.823 56.750 C 40.618 57.438,40.387 58.000,40.309 58.000 C 40.231 58.000,40.167 58.112,40.167 58.250 C 40.167 59.046,39.855 58.285,39.672 57.042 C 39.553 56.240,39.404 55.546,39.340 55.500 C 39.277 55.454,39.096 54.629,38.940 53.667 C 38.784 52.704,38.565 51.842,38.453 51.750 C 38.239 51.574,38.175 51.451,36.850 48.667 C 35.811 46.485,35.251 45.521,33.603 43.083 C 29.891 37.592,23.454 31.745,17.549 28.499 C 16.712 28.039,15.779 27.873,16.438 28.301 C 16.536 28.364,16.790 29.185,17.001 30.125 C 17.213 31.065,17.449 31.833,17.526 31.833 C 17.604 31.833,17.667 31.966,17.667 32.129 C 17.667 32.520,18.456 35.658,18.661 36.083 C 18.750 36.267,18.983 37.117,19.178 37.972 C 19.374 38.828,19.639 39.728,19.766 39.972 C 19.894 40.217,19.998 40.518,19.999 40.643 C 20.001 41.032,20.559 43.246,20.678 43.333 C 20.740 43.379,20.959 44.167,21.165 45.083 C 21.371 46.000,21.601 46.827,21.675 46.920 C 21.750 47.014,21.981 47.839,22.188 48.754 C 22.396 49.668,22.616 50.454,22.678 50.500 C 22.741 50.546,22.999 51.483,23.253 52.583 C 23.506 53.683,23.765 54.621,23.828 54.667 C 23.891 54.712,24.119 55.519,24.336 56.458 C 24.552 57.398,24.790 58.167,24.864 58.167 C 24.939 58.167,25.000 58.280,25.000 58.418 C 25.000 58.802,25.718 61.739,25.835 61.833 C 25.891 61.879,26.113 62.667,26.327 63.583 C 26.541 64.500,26.768 65.287,26.833 65.333 C 26.897 65.379,27.125 66.204,27.340 67.167 C 27.554 68.129,27.784 68.955,27.851 69.002 C 27.919 69.048,28.015 69.273,28.067 69.502 C 28.532 71.578,28.883 72.945,28.987 73.083 C 29.056 73.175,29.285 74.000,29.497 74.917 C 29.709 75.833,29.933 76.621,29.996 76.667 C 30.058 76.712,30.179 77.087,30.264 77.500 L 30.418 78.250 38.877 78.293 L 47.336 78.336 47.651 77.819 C 47.824 77.535,48.058 76.971,48.171 76.568 C 48.284 76.164,48.438 75.833,48.514 75.833 C 48.589 75.833,48.725 75.590,48.815 75.292 C 49.123 74.276,49.526 73.254,49.651 73.169 C 49.719 73.122,49.956 72.558,50.178 71.917 C 50.399 71.275,50.667 70.659,50.773 70.547 C 50.879 70.435,51.096 69.929,51.256 69.422 C 51.415 68.915,51.597 68.500,51.659 68.500 C 51.721 68.500,51.945 67.975,52.155 67.333 C 52.365 66.692,52.594 66.167,52.663 66.167 C 52.732 66.167,52.958 65.660,53.166 65.042 C 53.374 64.423,53.598 63.879,53.664 63.833 C 53.794 63.743,54.477 61.984,54.618 61.375 C 54.666 61.169,54.766 61.000,54.839 61.000 C 54.913 61.000,55.135 60.512,55.333 59.917 C 55.532 59.321,55.754 58.833,55.827 58.833 C 55.901 58.833,56.001 58.665,56.050 58.458 C 56.200 57.830,56.685 56.592,56.817 56.502 C 56.886 56.455,57.123 55.892,57.344 55.250 C 57.565 54.608,57.841 53.984,57.956 53.863 C 58.072 53.742,58.215 53.442,58.275 53.197 C 58.335 52.951,58.625 52.225,58.919 51.583 C 59.214 50.942,59.503 50.216,59.561 49.970 C 59.619 49.724,59.762 49.424,59.877 49.303 C 59.993 49.182,60.268 48.558,60.489 47.917 C 60.710 47.275,60.947 46.712,61.016 46.665 C 61.149 46.574,61.634 45.337,61.783 44.708 C 61.832 44.502,61.932 44.333,62.006 44.333 C 62.080 44.333,62.269 43.945,62.427 43.470 C 62.584 42.995,62.928 42.174,63.190 41.646 C 63.452 41.118,63.667 40.574,63.667 40.438 C 63.667 40.302,63.768 40.090,63.891 39.966 C 64.111 39.746,64.781 38.109,64.952 37.375 C 65.000 37.169,65.099 37.000,65.173 37.000 C 65.246 37.000,65.468 36.512,65.667 35.917 C 65.865 35.321,66.096 34.833,66.180 34.833 C 66.264 34.833,66.333 34.723,66.333 34.589 C 66.333 34.346,66.532 33.843,67.258 32.250 C 67.467 31.792,67.738 31.117,67.861 30.750 C 67.983 30.383,68.167 29.994,68.270 29.885 C 68.372 29.776,68.629 29.157,68.842 28.510 C 69.054 27.863,69.277 27.333,69.337 27.333 C 69.397 27.333,69.548 27.015,69.673 26.625 C 69.797 26.235,70.100 25.504,70.347 25.000 C 70.593 24.496,70.890 23.783,71.005 23.417 C 71.121 23.050,71.273 22.712,71.345 22.665 C 71.504 22.560,72.000 21.251,72.118 20.625 L 72.204 20.167 63.681 20.167 L 55.158 20.167 55.058 20.667 M166.583 20.398 C 165.657 20.623,163.893 21.440,163.705 21.730 C 163.638 21.833,163.433 21.999,163.250 22.099 C 163.067 22.199,162.819 22.480,162.699 22.724 C 162.580 22.967,162.410 23.167,162.322 23.167 C 162.160 23.167,161.333 24.830,161.333 25.156 C 161.333 25.254,161.264 25.333,161.180 25.333 C 161.096 25.333,160.865 25.821,160.667 26.417 C 160.468 27.012,160.247 27.500,160.176 27.500 C 160.104 27.500,159.875 28.006,159.667 28.625 C 159.459 29.244,159.243 29.787,159.186 29.833 C 159.017 29.970,158.500 31.160,158.500 31.410 C 158.500 31.538,158.395 31.748,158.266 31.877 C 158.137 32.005,157.913 32.463,157.766 32.894 C 157.620 33.324,157.320 34.034,157.098 34.470 C 156.877 34.907,156.568 35.655,156.412 36.132 C 156.256 36.609,156.068 37.000,155.994 37.000 C 155.921 37.000,155.698 37.487,155.500 38.083 C 155.302 38.679,155.089 39.167,155.027 39.167 C 154.965 39.167,154.816 39.485,154.695 39.875 C 154.574 40.265,154.267 40.996,154.013 41.500 C 153.759 42.004,153.453 42.715,153.333 43.079 C 153.214 43.443,153.015 43.842,152.892 43.965 C 152.768 44.089,152.618 44.391,152.559 44.637 C 152.499 44.882,152.161 45.704,151.808 46.462 C 151.455 47.220,151.167 47.945,151.167 48.075 C 151.167 48.204,151.061 48.415,150.933 48.543 C 150.804 48.672,150.586 49.109,150.448 49.514 C 150.310 49.919,150.009 50.625,149.778 51.083 C 149.548 51.542,149.260 52.235,149.139 52.625 C 149.018 53.015,148.871 53.333,148.813 53.333 C 148.755 53.333,148.533 53.802,148.320 54.375 C 148.107 54.948,147.835 55.516,147.716 55.637 C 147.597 55.758,147.500 55.969,147.500 56.105 C 147.500 56.242,147.210 56.967,146.855 57.718 C 146.500 58.469,146.113 59.381,145.996 59.745 C 145.879 60.110,145.682 60.509,145.558 60.632 C 145.435 60.756,145.333 60.962,145.333 61.090 C 145.333 61.318,144.831 62.504,144.665 62.667 C 144.551 62.778,143.833 64.554,143.833 64.723 C 143.833 64.797,143.733 64.957,143.611 65.079 C 143.489 65.202,143.257 65.721,143.096 66.234 C 142.934 66.747,142.742 67.167,142.669 67.167 C 142.596 67.167,142.486 67.368,142.424 67.615 C 142.362 67.861,142.065 68.592,141.765 69.240 C 141.464 69.887,141.079 70.792,140.909 71.250 C 140.739 71.708,140.548 72.121,140.483 72.167 C 140.418 72.212,140.209 72.695,140.018 73.239 C 139.827 73.783,139.608 74.271,139.533 74.322 C 139.457 74.374,139.218 74.904,139.000 75.500 C 138.782 76.096,138.561 76.621,138.507 76.667 C 138.325 76.823,138.000 77.682,138.000 78.008 C 138.000 78.326,138.179 78.333,146.417 78.333 C 153.787 78.333,154.833 78.302,154.833 78.083 C 154.833 77.946,154.903 77.833,154.988 77.833 C 155.073 77.833,155.268 77.402,155.420 76.875 C 155.573 76.348,155.865 75.542,156.070 75.083 C 156.275 74.625,156.579 73.800,156.747 73.250 C 156.914 72.700,157.104 72.212,157.168 72.167 C 157.232 72.121,157.416 71.671,157.578 71.167 C 157.739 70.662,157.977 70.081,158.106 69.875 L 158.341 69.500 168.164 69.500 L 177.987 69.500 178.146 70.125 C 178.234 70.469,178.400 71.313,178.516 72.000 C 178.632 72.688,178.779 73.287,178.842 73.333 C 178.942 73.406,179.408 75.755,179.626 77.292 C 179.669 77.590,179.770 77.833,179.852 77.833 C 179.933 77.833,180.000 77.946,180.000 78.083 C 180.000 78.302,180.935 78.333,187.417 78.333 L 194.833 78.333 194.833 77.972 C 194.833 77.390,194.466 75.424,194.340 75.333 C 194.276 75.287,194.056 74.276,193.850 73.085 C 193.644 71.895,193.415 70.845,193.341 70.752 C 193.268 70.659,193.005 69.467,192.758 68.103 C 192.511 66.739,192.244 65.502,192.165 65.353 C 192.087 65.205,191.855 64.146,191.651 63.000 C 191.447 61.854,191.230 60.879,191.169 60.833 C 191.108 60.788,190.889 59.776,190.683 58.585 C 190.477 57.395,190.253 56.382,190.184 56.335 C 190.116 56.288,189.883 55.237,189.667 54.000 C 189.450 52.762,189.223 51.712,189.162 51.667 C 189.102 51.621,188.876 50.608,188.662 49.417 C 188.447 48.225,188.222 47.212,188.161 47.167 C 188.101 47.121,187.843 45.921,187.588 44.500 C 187.333 43.079,187.073 41.879,187.010 41.833 C 186.948 41.787,186.724 40.775,186.512 39.583 C 186.300 38.392,186.070 37.342,186.000 37.250 C 185.930 37.158,185.700 36.108,185.488 34.917 C 185.276 33.725,185.055 32.712,184.996 32.667 C 184.937 32.621,184.716 31.646,184.505 30.500 C 184.295 29.354,184.071 28.379,184.008 28.333 C 183.945 28.287,183.718 27.219,183.503 25.958 C 183.288 24.698,183.064 23.667,183.005 23.667 C 182.946 23.667,182.758 22.879,182.587 21.917 L 182.276 20.167 174.847 20.181 C 169.622 20.191,167.169 20.255,166.583 20.398 M171.488 39.583 C 171.579 39.767,171.845 41.004,172.080 42.333 C 172.315 43.663,172.575 44.900,172.658 45.083 C 172.741 45.267,172.980 46.354,173.190 47.500 C 173.399 48.646,173.619 49.621,173.677 49.667 C 173.736 49.712,173.951 50.687,174.155 51.832 C 174.359 52.977,174.583 53.952,174.652 53.998 C 174.721 54.045,174.869 54.646,174.980 55.333 C 175.091 56.021,175.225 56.752,175.276 56.958 L 175.369 57.333 169.185 57.333 C 162.255 57.333,162.718 57.436,163.395 56.055 C 163.612 55.612,163.890 54.894,164.014 54.458 C 164.138 54.023,164.291 53.667,164.353 53.667 C 164.416 53.667,164.630 53.131,164.829 52.475 C 165.028 51.820,165.290 51.126,165.410 50.934 C 165.530 50.741,165.761 50.171,165.923 49.667 C 166.085 49.163,166.308 48.600,166.418 48.417 C 166.529 48.233,166.798 47.502,167.018 46.793 C 167.237 46.083,167.467 45.501,167.528 45.501 C 167.589 45.500,167.806 44.956,168.010 44.292 C 168.215 43.627,168.436 43.046,168.502 43.000 C 168.567 42.954,168.796 42.354,169.009 41.667 C 169.222 40.979,169.446 40.379,169.507 40.333 C 169.568 40.287,169.789 39.725,170.000 39.083 C 170.211 38.442,170.435 37.879,170.499 37.833 C 170.563 37.787,170.676 37.525,170.750 37.250 C 170.869 36.804,170.908 36.885,171.104 38.000 C 171.225 38.688,171.398 39.400,171.488 39.583 " stroke="none" fill="#04549b" fill-rule="evenodd"></path><path id="path1" d="M347.167 0.180 C 344.715 0.335,340.952 0.818,340.833 0.993 C 340.787 1.060,340.037 1.248,339.167 1.410 C 338.296 1.573,337.375 1.805,337.121 1.926 C 336.867 2.046,335.967 2.344,335.121 2.587 C 334.275 2.830,333.500 3.098,333.399 3.182 C 333.297 3.266,332.780 3.484,332.250 3.667 C 331.720 3.849,331.203 4.067,331.101 4.152 C 330.999 4.237,330.504 4.468,330.001 4.666 C 329.498 4.865,329.048 5.079,329.002 5.143 C 328.955 5.207,328.579 5.402,328.167 5.577 C 327.754 5.752,327.267 6.019,327.083 6.171 C 326.900 6.322,326.504 6.543,326.203 6.662 C 325.902 6.781,325.386 7.093,325.055 7.356 C 324.725 7.618,324.378 7.833,324.285 7.833 C 324.099 7.833,322.316 9.120,321.039 10.177 C 320.733 10.430,320.923 10.672,322.417 11.929 C 332.868 20.728,339.350 34.564,339.510 48.417 C 339.523 49.574,339.525 49.579,339.742 48.991 C 341.217 44.986,346.222 43.206,349.978 45.351 C 351.112 45.999,351.141 46.127,350.405 47.235 C 349.795 48.153,349.553 48.315,349.242 48.013 C 348.945 47.726,347.013 47.167,346.316 47.167 C 343.392 47.167,341.659 49.899,342.625 52.985 C 343.402 55.471,346.080 56.367,348.705 55.018 L 349.660 54.528 350.330 55.472 C 351.158 56.639,351.158 56.685,350.317 57.241 C 346.279 59.913,340.351 57.561,339.522 52.958 C 339.394 52.252,339.394 52.253,339.273 53.417 C 337.938 66.315,332.097 77.649,322.554 85.858 C 320.833 87.339,320.710 87.629,321.583 88.145 C 321.904 88.334,322.167 88.566,322.167 88.661 C 322.167 88.756,322.245 88.833,322.341 88.833 C 322.438 88.833,322.944 89.125,323.466 89.481 C 325.203 90.665,326.578 91.500,326.790 91.500 C 326.906 91.500,327.000 91.562,327.000 91.638 C 327.000 91.714,327.394 91.955,327.875 92.173 C 328.356 92.391,328.938 92.693,329.167 92.845 C 329.396 92.996,329.883 93.217,330.250 93.334 C 330.617 93.452,330.959 93.613,331.011 93.693 C 331.063 93.772,331.547 93.992,332.087 94.182 C 332.627 94.372,333.260 94.625,333.493 94.745 C 333.726 94.864,334.517 95.129,335.250 95.334 C 335.983 95.538,336.621 95.759,336.667 95.824 C 336.712 95.889,337.575 96.121,338.583 96.339 C 339.592 96.558,340.454 96.786,340.500 96.845 C 340.769 97.196,347.544 97.833,351.000 97.833 C 354.474 97.833,361.237 97.195,361.500 96.842 C 361.546 96.781,362.408 96.557,363.417 96.345 C 364.425 96.133,365.287 95.903,365.333 95.834 C 365.379 95.764,366.007 95.546,366.729 95.349 C 367.450 95.151,368.350 94.851,368.729 94.682 C 369.107 94.512,369.604 94.318,369.833 94.252 C 370.437 94.076,375.000 91.812,375.001 91.688 C 375.001 91.630,375.351 91.439,375.779 91.264 C 376.206 91.088,376.676 90.825,376.822 90.680 C 376.968 90.535,377.274 90.323,377.502 90.210 C 377.989 89.966,378.549 89.621,378.667 89.492 C 378.712 89.442,379.012 89.219,379.333 88.996 C 379.654 88.774,379.992 88.532,380.083 88.458 C 380.175 88.385,380.775 87.927,381.417 87.443 C 383.776 85.660,387.525 81.953,389.197 79.750 C 389.405 79.475,389.678 79.144,389.803 79.015 C 389.927 78.886,390.200 78.510,390.409 78.179 C 390.617 77.849,390.911 77.477,391.061 77.352 C 391.211 77.228,391.333 77.051,391.333 76.960 C 391.333 76.869,391.596 76.437,391.917 76.000 C 392.238 75.563,392.500 75.133,392.500 75.045 C 392.500 74.957,392.640 74.759,392.810 74.604 C 392.981 74.450,393.260 74.007,393.431 73.620 C 393.601 73.233,393.787 72.879,393.842 72.833 C 393.935 72.758,394.975 70.746,395.911 68.833 C 396.113 68.421,396.382 67.727,396.509 67.292 C 396.636 66.856,396.788 66.500,396.846 66.500 C 396.905 66.500,397.167 65.769,397.428 64.875 C 397.689 63.981,397.946 63.212,398.000 63.167 C 398.100 63.081,398.567 61.106,398.768 59.917 C 398.831 59.550,398.937 59.212,399.004 59.167 C 399.211 59.026,399.665 55.245,399.864 52.010 C 400.114 47.933,399.558 39.260,399.019 38.833 C 398.962 38.787,398.738 37.887,398.523 36.833 C 398.308 35.779,398.076 34.879,398.008 34.833 C 397.940 34.787,397.833 34.525,397.769 34.250 C 397.540 33.256,396.949 31.415,396.833 31.333 C 396.768 31.287,396.620 30.950,396.505 30.583 C 396.100 29.300,393.274 23.731,392.826 23.333 C 392.774 23.287,392.560 22.914,392.349 22.504 C 392.138 22.093,391.805 21.557,391.608 21.312 C 391.411 21.068,390.923 20.410,390.523 19.850 C 390.123 19.291,389.729 18.833,389.648 18.833 C 389.566 18.833,389.500 18.755,389.500 18.659 C 389.500 18.507,388.898 17.742,387.492 16.109 C 387.138 15.698,384.633 13.224,383.837 12.500 C 383.005 11.743,381.514 10.500,381.437 10.500 C 381.388 10.500,381.164 10.331,380.939 10.125 C 380.329 9.567,379.880 9.237,378.500 8.332 C 377.813 7.881,377.155 7.430,377.038 7.330 C 376.922 7.229,376.434 6.950,375.955 6.709 C 375.476 6.468,374.971 6.178,374.833 6.066 C 374.696 5.953,374.246 5.729,373.833 5.567 C 373.421 5.405,373.046 5.224,373.000 5.164 C 372.866 4.989,370.145 3.723,369.417 3.497 C 369.050 3.383,368.675 3.235,368.583 3.168 C 368.341 2.992,366.315 2.334,366.009 2.332 C 365.867 2.332,365.542 2.223,365.289 2.091 C 365.035 1.958,364.060 1.688,363.122 1.490 C 362.184 1.292,361.293 1.067,361.141 0.990 C 359.856 0.339,351.930 -0.120,347.167 0.180 M0.119 20.103 C 0.054 20.169,-0.000 20.529,-0.000 20.904 C 0.000 21.712,0.157 21.809,2.333 22.331 C 3.112 22.518,3.866 22.736,4.008 22.816 C 4.151 22.896,5.013 23.171,5.925 23.428 C 6.837 23.684,7.624 23.953,7.674 24.026 C 7.724 24.099,8.242 24.311,8.825 24.497 C 9.409 24.684,9.968 24.902,10.068 24.981 C 10.168 25.061,10.737 25.300,11.333 25.512 C 11.929 25.724,12.454 25.946,12.500 26.005 C 12.643 26.189,16.111 27.833,16.356 27.833 C 17.498 27.833,23.804 32.281,27.330 35.575 C 31.742 39.694,36.728 46.772,37.992 50.708 C 38.269 51.572,38.557 51.516,38.422 50.625 C 38.363 50.235,38.246 49.767,38.163 49.583 C 38.080 49.400,37.858 48.366,37.670 47.285 C 37.482 46.205,37.258 45.192,37.172 45.035 C 37.087 44.878,36.850 43.737,36.647 42.500 C 36.444 41.262,36.231 40.212,36.174 40.167 C 36.118 40.121,35.897 39.108,35.684 37.917 C 35.470 36.725,35.240 35.675,35.173 35.583 C 35.105 35.492,34.879 34.404,34.671 33.167 C 34.462 31.929,34.236 30.842,34.168 30.750 C 34.099 30.658,33.836 29.383,33.583 27.917 C 33.330 26.450,33.075 25.212,33.017 25.167 C 32.959 25.121,32.819 24.728,32.707 24.294 C 32.369 22.989,30.662 21.000,29.880 21.000 C 29.778 21.000,29.667 20.919,29.634 20.820 C 29.426 20.194,0.725 19.497,0.119 20.103 M392.000 48.840 L 392.000 58.013 390.625 57.965 L 389.250 57.917 389.167 57.359 L 389.083 56.801 388.436 57.317 C 385.689 59.505,380.959 58.052,379.266 54.500 C 376.392 48.469,383.235 41.761,388.446 45.503 L 389.167 46.021 389.167 42.844 L 389.167 39.667 390.583 39.667 L 392.000 39.667 392.000 48.840 M361.022 44.827 C 361.354 44.925,361.917 45.236,362.272 45.519 L 362.917 46.033 362.968 45.433 L 363.020 44.833 364.427 44.833 L 365.833 44.833 365.833 51.417 L 365.833 58.000 364.417 58.000 L 363.000 58.000 363.000 57.320 L 363.000 56.641 362.335 57.210 C 360.253 58.992,356.239 58.512,354.141 56.231 C 351.869 53.761,351.951 48.912,354.307 46.445 C 355.933 44.742,358.569 44.107,361.022 44.827 M377.055 44.656 C 377.934 44.860,377.928 44.834,377.417 46.234 L 376.961 47.484 376.439 47.367 C 373.084 46.616,372.439 47.620,372.362 53.715 L 372.308 58.013 370.946 57.965 L 369.583 57.917 369.540 51.375 L 369.496 44.833 370.915 44.833 L 372.333 44.833 372.333 45.448 L 372.333 46.062 372.792 45.635 C 373.859 44.639,375.429 44.279,377.055 44.656 M357.917 47.360 C 353.798 48.904,354.873 55.597,359.237 55.578 C 364.296 55.557,364.578 47.489,359.528 47.230 C 358.917 47.198,358.192 47.257,357.917 47.360 M384.332 47.322 C 379.990 48.643,380.989 55.659,385.521 55.666 C 387.761 55.669,389.250 53.973,389.250 51.417 C 389.250 48.394,386.991 46.514,384.332 47.322 " stroke="none" fill="#fba404" fill-rule="evenodd"></path><path id="path2" d="M389.444 39.778 C 389.383 39.839,389.333 41.338,389.333 43.110 L 389.333 46.331 388.594 45.767 C 383.709 42.038,377.260 47.411,379.099 53.678 C 380.336 57.892,385.856 59.632,388.958 56.786 L 389.333 56.442 389.333 57.138 L 389.333 57.833 390.583 57.833 L 391.833 57.833 391.833 48.750 L 391.833 39.667 390.694 39.667 C 390.068 39.667,389.506 39.717,389.444 39.778 M305.130 42.958 L 305.083 44.917 303.750 45.000 L 302.417 45.083 302.367 46.118 L 302.318 47.153 303.701 47.201 L 305.083 47.250 305.167 51.333 C 305.273 56.531,305.612 57.386,307.814 57.997 C 309.101 58.355,311.798 58.013,312.792 57.366 C 312.965 57.253,312.599 55.752,312.220 55.025 C 312.203 54.994,311.769 55.125,311.255 55.317 C 308.284 56.429,307.623 55.519,307.702 50.417 L 307.750 47.250 310.042 47.204 L 312.333 47.157 312.333 46.083 L 312.333 45.009 310.042 44.963 L 307.750 44.917 307.703 42.958 L 307.656 41.000 306.417 41.000 L 305.177 41.000 305.130 42.958 M254.239 44.982 C 253.866 45.151,253.285 45.532,252.947 45.829 L 252.333 46.368 252.333 45.684 L 252.333 45.000 251.083 45.000 L 249.833 45.000 249.833 51.417 L 249.833 57.833 251.071 57.833 L 252.308 57.833 252.363 53.542 C 252.421 48.869,252.444 48.748,253.443 47.802 C 254.862 46.460,257.417 46.821,258.270 48.483 C 258.542 49.012,258.585 49.601,258.635 53.458 L 258.691 57.833 260.004 57.833 L 261.318 57.833 261.367 53.458 C 261.422 48.588,261.441 48.496,262.557 47.598 C 263.391 46.928,265.472 46.833,266.272 47.430 C 267.403 48.273,267.500 48.757,267.500 53.526 L 267.500 57.833 268.750 57.833 L 270.000 57.833 269.999 53.125 C 269.999 50.396,269.926 48.156,269.826 47.796 C 268.890 44.426,263.521 43.507,261.078 46.299 L 260.573 46.877 260.122 46.286 C 259.022 44.844,256.011 44.177,254.239 44.982 M277.500 44.823 C 271.847 46.548,271.175 54.948,276.482 57.545 C 278.553 58.558,281.660 58.224,282.897 56.855 C 283.302 56.408,283.500 56.541,283.500 57.260 L 283.500 57.833 284.750 57.833 L 286.000 57.833 286.000 51.417 L 286.000 45.000 284.750 45.000 L 283.500 45.000 283.500 45.556 C 283.500 46.353,283.368 46.389,282.659 45.782 C 281.518 44.805,279.057 44.347,277.500 44.823 M292.413 44.957 C 290.240 45.734,289.119 47.633,289.657 49.629 C 290.086 51.223,291.320 52.012,294.143 52.496 C 297.133 53.009,297.958 53.546,297.521 54.694 C 297.033 55.978,293.688 56.258,291.440 55.203 C 290.811 54.908,290.268 54.667,290.233 54.667 C 289.946 54.667,288.966 56.545,289.177 56.691 C 292.536 59.024,298.449 58.515,299.871 55.771 C 301.275 53.061,299.657 50.841,295.786 50.167 C 292.770 49.642,292.333 49.426,292.333 48.461 C 292.333 46.966,295.494 46.453,297.904 47.556 C 298.443 47.803,298.897 47.985,298.913 47.961 C 299.544 46.990,300.003 46.081,299.942 45.922 C 299.580 44.979,294.260 44.297,292.413 44.957 M319.141 44.890 C 313.719 46.908,313.306 55.078,318.500 57.560 C 320.641 58.583,324.457 58.196,326.235 56.776 L 326.720 56.389 326.075 55.479 L 325.431 54.570 324.257 55.160 C 321.465 56.563,317.667 55.253,317.667 52.887 L 317.667 52.505 322.458 52.461 L 327.250 52.417 327.303 51.500 C 327.455 48.864,326.102 46.328,323.953 45.218 C 322.901 44.674,320.212 44.491,319.141 44.890 M334.904 44.903 C 334.622 45.026,334.124 45.360,333.798 45.647 C 333.053 46.301,333.000 46.297,333.000 45.583 L 333.000 45.000 331.750 45.000 L 330.500 45.000 330.500 51.417 L 330.500 57.833 331.740 57.833 L 332.980 57.833 333.032 53.446 L 333.083 49.058 333.541 48.366 C 334.325 47.183,335.555 46.806,337.397 47.185 C 337.897 47.288,338.621 45.076,338.167 44.833 C 337.718 44.593,335.507 44.640,334.904 44.903 M344.083 44.893 C 338.307 46.785,337.880 55.199,343.437 57.645 C 345.004 58.335,347.968 58.288,349.543 57.548 C 350.952 56.887,351.007 56.735,350.251 55.596 L 349.640 54.675 348.612 55.208 C 345.959 56.583,342.969 55.360,342.343 52.644 C 341.446 48.754,344.671 45.910,348.250 47.434 C 349.767 48.080,349.696 48.089,350.303 47.154 C 350.995 46.089,350.935 45.943,349.544 45.284 C 348.238 44.665,345.400 44.462,344.083 44.893 M357.167 44.814 C 351.464 46.684,350.881 55.118,356.282 57.626 C 358.261 58.545,361.383 58.162,362.564 56.855 C 362.968 56.408,363.167 56.541,363.167 57.260 L 363.167 57.833 364.417 57.833 L 365.667 57.833 365.667 51.417 L 365.667 45.000 364.417 45.000 L 363.167 45.000 363.167 45.556 C 363.167 46.299,363.052 46.371,362.596 45.914 C 361.587 44.906,358.682 44.317,357.167 44.814 M373.917 45.008 C 373.550 45.205,373.006 45.599,372.708 45.883 L 372.167 46.399 372.167 45.699 L 372.167 45.000 370.917 45.000 L 369.667 45.000 369.667 51.417 L 369.667 57.833 370.904 57.833 L 372.142 57.833 372.196 53.542 L 372.250 49.250 372.706 48.474 C 373.463 47.186,374.792 46.755,376.659 47.193 C 376.929 47.256,377.802 45.080,377.591 44.869 C 377.269 44.546,374.585 44.647,373.917 45.008 M281.059 47.229 C 284.234 48.556,284.393 53.861,281.305 55.399 C 277.986 57.053,274.690 53.824,275.770 49.976 C 276.423 47.649,278.938 46.343,281.059 47.229 M322.547 47.225 C 323.589 47.663,324.899 49.612,324.553 50.208 C 324.513 50.277,322.937 50.333,321.052 50.333 L 317.623 50.333 317.724 49.711 C 318.048 47.713,320.590 46.403,322.547 47.225 M360.726 47.229 C 363.982 48.590,364.147 53.817,360.983 55.394 C 357.414 57.172,353.943 53.150,355.712 49.287 C 356.567 47.418,358.894 46.464,360.726 47.229 M387.114 47.348 C 391.210 49.331,389.613 56.192,385.149 55.787 C 380.030 55.323,380.344 47.000,385.480 47.000 C 386.067 47.000,386.652 47.125,387.114 47.348 " stroke="none" fill="#fcf9f7" fill-rule="evenodd"></path><path id="path3" d="M286.835 0.181 C 284.265 0.344,280.500 0.833,280.500 1.003 C 280.500 1.072,280.144 1.180,279.708 1.242 C 278.619 1.398,276.601 1.876,276.500 2.001 C 276.454 2.058,275.710 2.304,274.845 2.549 C 273.981 2.793,273.231 3.055,273.179 3.132 C 273.126 3.208,272.664 3.401,272.152 3.559 C 271.640 3.718,271.077 3.944,270.902 4.061 C 270.727 4.179,270.133 4.452,269.583 4.669 C 269.033 4.885,268.544 5.119,268.497 5.187 C 268.449 5.256,268.055 5.464,267.622 5.650 C 267.188 5.836,266.833 6.051,266.833 6.127 C 266.833 6.204,266.590 6.355,266.292 6.463 C 265.994 6.570,265.337 6.929,264.833 7.259 C 264.329 7.589,263.748 7.926,263.542 8.009 C 263.335 8.091,263.167 8.227,263.167 8.310 C 263.167 8.394,262.900 8.589,262.573 8.744 C 262.247 8.898,261.939 9.132,261.889 9.263 C 261.839 9.393,261.720 9.500,261.624 9.500 C 261.469 9.500,260.724 10.064,259.032 11.461 C 258.243 12.114,253.677 16.684,253.083 17.416 C 252.808 17.756,252.471 18.162,252.333 18.320 C 251.874 18.846,251.333 19.651,251.333 19.809 C 251.333 19.894,251.225 20.006,251.092 20.057 C 250.959 20.108,250.724 20.397,250.569 20.700 C 250.415 21.002,250.186 21.310,250.061 21.383 C 249.936 21.457,249.833 21.598,249.833 21.697 C 249.833 21.796,249.581 22.228,249.272 22.658 C 248.964 23.087,248.580 23.715,248.420 24.052 C 248.260 24.390,248.079 24.667,248.018 24.667 C 247.957 24.667,247.759 25.051,247.578 25.520 C 247.398 25.990,247.160 26.409,247.050 26.451 C 246.941 26.494,246.691 27.010,246.495 27.598 C 246.300 28.186,246.084 28.667,246.017 28.667 C 245.950 28.667,245.718 29.173,245.502 29.792 C 245.286 30.410,245.017 31.067,244.905 31.250 C 244.793 31.433,244.577 32.033,244.425 32.583 C 244.273 33.133,244.042 33.816,243.911 34.100 C 243.781 34.385,243.510 35.397,243.309 36.350 C 243.108 37.303,242.892 38.121,242.830 38.167 C 242.666 38.287,242.197 41.477,242.064 43.375 C 242.002 44.269,241.887 45.000,241.809 45.000 C 241.731 45.000,241.667 46.800,241.667 49.000 C 241.667 51.200,241.730 53.000,241.808 53.000 C 241.886 53.000,241.997 53.660,242.054 54.467 C 242.200 56.528,242.668 59.573,242.849 59.639 C 242.932 59.669,243.000 59.833,243.000 60.003 C 243.000 60.788,244.638 66.421,245.011 66.917 C 245.080 67.008,245.292 67.528,245.483 68.072 C 245.674 68.616,245.892 69.104,245.967 69.156 C 246.043 69.208,246.278 69.719,246.489 70.292 C 246.701 70.865,246.922 71.333,246.980 71.333 C 247.038 71.333,247.265 71.727,247.484 72.208 C 247.703 72.690,247.936 73.121,248.002 73.167 C 248.068 73.212,248.293 73.587,248.502 74.000 C 248.711 74.412,249.058 74.982,249.274 75.266 C 249.490 75.549,249.667 75.860,249.667 75.957 C 249.667 76.053,249.853 76.308,250.080 76.524 C 250.308 76.740,250.496 76.979,250.497 77.056 C 250.500 77.200,251.802 78.929,252.458 79.662 C 252.665 79.892,252.833 80.132,252.833 80.196 C 252.833 80.259,253.246 80.730,253.750 81.243 C 254.254 81.755,254.667 82.219,254.667 82.274 C 254.667 82.461,257.292 85.000,257.485 85.000 C 257.591 85.000,257.716 85.102,257.764 85.226 C 257.811 85.350,258.344 85.856,258.947 86.351 C 259.550 86.845,260.128 87.327,260.230 87.422 C 260.333 87.517,260.679 87.777,261.000 88.001 C 261.321 88.224,261.770 88.578,261.998 88.787 C 262.227 88.996,262.504 89.167,262.615 89.167 C 262.726 89.167,262.877 89.261,262.950 89.376 C 263.146 89.683,264.916 90.761,267.333 92.046 C 267.837 92.313,268.287 92.590,268.333 92.661 C 268.379 92.731,268.885 92.959,269.458 93.167 C 270.031 93.375,270.500 93.597,270.500 93.661 C 270.500 93.725,271.044 93.956,271.708 94.174 C 272.373 94.393,272.960 94.632,273.012 94.706 C 273.065 94.780,273.815 95.040,274.679 95.285 C 275.543 95.529,276.287 95.775,276.333 95.832 C 276.430 95.952,278.410 96.433,279.500 96.601 C 279.912 96.665,280.287 96.771,280.333 96.838 C 280.595 97.216,286.997 97.825,290.750 97.828 C 294.456 97.831,300.996 97.193,301.139 96.814 C 301.169 96.733,301.348 96.667,301.535 96.667 C 302.003 96.667,304.878 95.990,305.083 95.831 C 305.175 95.760,305.737 95.569,306.333 95.407 C 306.929 95.244,307.792 94.944,308.250 94.740 C 308.708 94.536,309.457 94.243,309.914 94.090 C 310.370 93.936,310.783 93.756,310.830 93.688 C 310.878 93.621,311.329 93.392,311.833 93.179 C 312.337 92.966,312.787 92.739,312.833 92.675 C 312.879 92.610,313.348 92.381,313.875 92.165 C 314.402 91.949,314.833 91.715,314.833 91.645 C 314.833 91.576,315.278 91.319,315.822 91.075 C 316.366 90.831,316.851 90.527,316.900 90.399 C 316.949 90.271,317.093 90.167,317.220 90.167 C 317.347 90.167,317.636 89.998,317.862 89.792 C 318.087 89.585,318.605 89.235,319.011 89.013 C 319.417 88.791,319.812 88.505,319.888 88.379 C 319.965 88.252,320.208 88.079,320.430 87.995 C 321.086 87.745,320.914 87.280,319.860 86.451 C 318.256 85.191,314.664 81.540,313.103 79.583 C 307.128 72.094,303.713 63.944,302.571 54.451 C 302.281 52.033,302.067 45.003,302.280 44.854 C 302.361 44.797,302.558 43.700,302.718 42.417 C 304.145 30.930,310.213 19.781,319.292 11.965 C 321.007 10.489,321.088 10.306,320.250 9.811 C 319.929 9.622,319.667 9.417,319.667 9.355 C 319.667 9.293,319.329 9.059,318.917 8.833 C 318.504 8.608,318.167 8.366,318.167 8.296 C 318.167 8.226,317.829 8.010,317.417 7.816 C 317.004 7.622,316.667 7.410,316.667 7.344 C 316.667 7.278,316.217 7.005,315.667 6.737 C 315.117 6.469,314.667 6.207,314.667 6.153 C 314.667 6.100,314.273 5.876,313.792 5.654 C 313.310 5.432,312.830 5.170,312.724 5.070 C 312.618 4.970,312.112 4.757,311.599 4.596 C 311.086 4.434,310.667 4.240,310.667 4.165 C 310.667 4.089,310.273 3.899,309.792 3.742 C 309.310 3.586,308.542 3.290,308.083 3.085 C 307.625 2.880,306.688 2.572,306.000 2.399 C 305.313 2.227,304.709 2.030,304.658 1.962 C 304.608 1.893,303.783 1.679,302.825 1.484 C 301.867 1.290,301.004 1.067,300.907 0.988 C 300.152 0.376,291.538 -0.118,286.835 0.181 M258.072 44.784 C 258.851 45.002,259.260 45.244,259.851 45.835 L 260.618 46.603 261.101 46.045 C 262.760 44.129,266.766 43.989,268.681 45.780 C 270.178 47.180,270.250 47.515,270.250 53.083 L 270.250 57.917 268.833 57.917 L 267.417 57.917 267.333 53.500 C 267.237 48.402,267.152 48.038,265.929 47.483 C 264.397 46.787,262.681 47.266,261.891 48.610 L 261.417 49.417 261.365 53.708 L 261.313 58.000 259.906 58.000 L 258.500 58.000 258.500 53.702 C 258.500 48.135,258.187 47.360,255.877 47.208 C 253.072 47.024,252.500 48.220,252.500 54.273 L 252.500 58.000 251.083 58.000 L 249.667 58.000 249.667 51.417 L 249.667 44.833 251.083 44.833 L 252.500 44.833 252.500 45.448 L 252.500 46.062 252.991 45.592 C 254.043 44.584,256.160 44.247,258.072 44.784 M281.380 44.828 C 281.726 44.933,282.261 45.239,282.568 45.509 C 283.278 46.132,283.333 46.125,283.333 45.417 L 283.333 44.833 284.750 44.833 L 286.167 44.833 286.167 51.417 L 286.167 58.000 284.750 58.000 L 283.333 58.000 283.333 57.320 L 283.333 56.641 282.660 57.217 C 281.179 58.485,277.343 58.616,275.884 57.450 C 273.908 55.869,273.099 54.559,272.847 52.531 C 272.171 47.103,276.369 43.313,281.380 44.828 M297.234 44.742 C 299.971 45.265,300.402 45.674,299.660 47.044 C 299.035 48.197,298.997 48.223,298.390 47.920 C 296.820 47.137,293.912 46.946,292.968 47.565 C 291.637 48.437,292.672 49.633,295.000 49.909 C 298.470 50.322,299.910 51.196,300.364 53.163 C 301.218 56.863,296.914 59.240,291.667 57.966 C 290.731 57.738,289.013 56.893,288.902 56.606 C 288.783 56.296,290.151 54.306,290.389 54.443 C 290.496 54.504,290.782 54.692,291.024 54.860 C 292.264 55.717,295.829 55.940,296.796 55.221 C 298.327 54.081,297.465 53.166,294.456 52.739 C 290.914 52.235,289.500 51.049,289.500 48.580 C 289.500 45.385,292.588 43.853,297.234 44.742 M278.339 47.352 C 275.070 48.347,274.748 53.655,277.860 55.264 C 280.595 56.678,283.441 54.551,283.308 51.192 C 283.191 48.242,280.995 46.545,278.339 47.352 " stroke="none" fill="#fc1c24" fill-rule="evenodd"></path><path id="path4" d="M319.653 11.637 C 311.363 18.790,305.971 27.597,303.513 38.000 C 303.030 40.042,302.500 43.360,302.500 44.339 L 302.500 44.833 303.750 44.833 L 305.000 44.833 305.000 42.833 L 305.000 40.833 306.417 40.833 L 307.833 40.833 307.833 42.829 L 307.833 44.824 310.208 44.870 L 312.583 44.917 312.583 46.083 L 312.583 47.250 310.208 47.296 L 307.833 47.342 307.833 50.855 L 307.833 54.367 308.400 54.933 C 309.053 55.586,309.911 55.681,311.083 55.228 C 312.227 54.786,312.350 54.826,312.678 55.750 C 313.284 57.455,312.997 57.805,310.681 58.187 C 307.824 58.659,305.662 57.570,305.160 55.404 C 305.076 55.044,305.006 53.081,305.004 51.042 L 305.000 47.333 303.678 47.333 C 302.048 47.333,302.085 47.258,302.240 50.236 C 302.842 61.792,306.247 70.990,313.103 79.583 C 314.664 81.540,318.256 85.191,319.860 86.451 C 320.395 86.872,320.838 87.336,320.844 87.483 C 320.852 87.675,320.893 87.654,320.993 87.408 C 321.069 87.220,321.772 86.522,322.555 85.858 C 344.676 67.077,345.032 31.601,323.289 12.718 C 322.359 11.911,321.439 11.097,321.244 10.910 L 320.889 10.571 319.653 11.637 M323.735 44.976 C 326.030 45.991,327.486 48.464,327.497 51.361 C 327.502 52.766,327.876 52.667,322.566 52.667 C 319.424 52.667,317.833 52.724,317.833 52.839 C 317.833 55.231,321.936 56.459,324.533 54.844 C 324.985 54.563,325.377 54.333,325.404 54.333 C 325.774 54.333,326.831 56.393,326.595 56.654 C 323.989 59.533,317.365 58.517,315.564 54.961 C 312.550 49.014,317.949 42.417,323.735 44.976 M337.888 44.656 C 338.773 44.861,338.769 44.843,338.231 46.243 L 337.750 47.495 337.167 47.373 C 333.877 46.681,333.282 47.606,333.167 53.583 L 333.083 57.917 331.708 57.965 L 330.333 58.013 330.333 51.423 L 330.333 44.833 331.750 44.833 L 333.167 44.833 333.167 45.333 C 333.167 45.932,333.209 45.942,333.753 45.458 C 334.689 44.627,336.363 44.302,337.888 44.656 M319.895 47.348 C 319.264 47.531,318.377 48.388,318.063 49.120 C 317.599 50.203,317.491 50.167,321.167 50.167 C 324.842 50.167,324.706 50.215,324.187 49.083 C 323.451 47.479,321.778 46.802,319.895 47.348 " stroke="none" fill="#fc5c14" fill-rule="evenodd"></path><path id="path5" d="M389.167 42.854 C 389.167 45.864,389.150 46.028,388.875 45.815 C 388.659 45.648,388.670 45.691,388.917 45.980 L 389.250 46.371 389.290 45.227 C 389.403 42.006,389.403 39.666,389.292 39.666 C 389.223 39.667,389.167 41.101,389.167 42.854 M391.833 48.750 L 391.833 57.833 390.593 57.833 L 389.352 57.833 389.301 57.139 C 389.254 56.492,389.233 56.466,389.000 56.754 C 388.863 56.925,388.839 57.011,388.948 56.945 C 389.081 56.866,389.162 57.005,389.198 57.372 L 389.250 57.917 390.625 57.965 L 392.000 58.013 392.000 48.840 C 392.000 43.795,391.962 39.667,391.917 39.667 C 391.871 39.667,391.833 43.754,391.833 48.750 M305.118 40.938 C 305.053 41.003,305.000 41.906,305.000 42.944 L 305.000 44.833 303.760 44.833 C 303.078 44.833,302.485 44.890,302.442 44.958 C 302.399 45.027,302.976 45.046,303.724 45.000 L 305.083 44.917 305.130 42.958 L 305.177 41.000 306.417 41.000 L 307.656 41.000 307.703 42.958 L 307.750 44.917 310.042 44.963 L 312.333 45.009 312.333 46.083 L 312.333 47.157 310.042 47.204 L 307.750 47.250 307.745 50.583 L 307.740 53.917 307.790 50.625 L 307.840 47.333 310.170 47.333 L 312.500 47.333 312.500 46.083 L 312.500 44.833 310.172 44.833 L 307.844 44.833 307.797 42.875 L 307.750 40.917 306.493 40.869 C 305.801 40.842,305.182 40.873,305.118 40.938 M264.708 44.615 C 264.869 44.657,265.131 44.657,265.292 44.615 C 265.452 44.573,265.321 44.539,265.000 44.539 C 264.679 44.539,264.548 44.573,264.708 44.615 M294.627 44.618 C 294.834 44.658,295.134 44.656,295.294 44.615 C 295.453 44.573,295.283 44.540,294.917 44.542 C 294.550 44.544,294.420 44.578,294.627 44.618 M320.708 44.619 C 320.960 44.658,321.373 44.658,321.625 44.619 C 321.877 44.581,321.671 44.550,321.167 44.550 C 320.662 44.550,320.456 44.581,320.708 44.619 M336.211 44.620 C 336.464 44.658,336.839 44.657,337.044 44.617 C 337.249 44.578,337.042 44.546,336.583 44.548 C 336.125 44.549,335.957 44.581,336.211 44.620 M345.708 44.621 C 346.052 44.657,346.615 44.657,346.958 44.621 C 347.302 44.585,347.021 44.556,346.333 44.556 C 345.646 44.556,345.365 44.585,345.708 44.621 M358.292 44.621 C 358.590 44.658,359.077 44.658,359.375 44.621 C 359.673 44.584,359.429 44.553,358.833 44.553 C 358.238 44.553,357.994 44.584,358.292 44.621 M375.375 44.619 C 375.627 44.658,376.040 44.658,376.292 44.619 C 376.544 44.581,376.337 44.550,375.833 44.550 C 375.329 44.550,375.123 44.581,375.375 44.619 M384.625 44.621 C 384.923 44.658,385.410 44.658,385.708 44.621 C 386.006 44.584,385.762 44.553,385.167 44.553 C 384.571 44.553,384.327 44.584,384.625 44.621 M250.463 44.956 C 250.855 44.991,251.455 44.990,251.796 44.954 C 252.137 44.919,251.817 44.890,251.083 44.890 C 250.350 44.891,250.071 44.920,250.463 44.956 M284.747 44.954 L 285.996 45.014 286.043 51.299 L 286.089 57.583 286.086 51.250 L 286.083 44.917 284.791 44.905 L 283.499 44.894 284.747 44.954 M330.409 45.042 C 330.365 45.157,330.349 48.101,330.373 51.584 L 330.417 57.917 331.667 57.927 L 332.917 57.938 331.708 57.878 L 330.500 57.819 330.500 51.417 L 330.500 45.014 331.792 44.957 L 333.083 44.900 331.786 44.867 C 330.875 44.843,330.466 44.895,330.409 45.042 M348.833 44.953 C 348.971 45.004,349.365 45.187,349.708 45.360 C 350.052 45.532,350.333 45.636,350.333 45.590 C 350.333 45.459,349.038 44.832,348.798 44.846 C 348.656 44.855,348.668 44.891,348.833 44.953 M355.958 45.178 C 355.615 45.359,355.333 45.545,355.333 45.591 C 355.333 45.665,356.650 45.050,356.819 44.896 C 357.011 44.723,356.511 44.886,355.958 45.178 M361.014 44.887 C 361.279 45.090,362.333 45.640,362.333 45.575 C 362.333 45.464,361.284 44.835,361.097 44.834 C 361.013 44.834,360.976 44.857,361.014 44.887 M363.000 45.427 C 363.000 45.775,362.932 45.978,362.835 45.918 C 362.741 45.860,362.713 45.926,362.769 46.074 C 362.930 46.492,363.167 46.193,363.167 45.573 L 363.167 45.000 364.417 45.000 L 365.667 45.000 365.667 51.417 L 365.667 57.833 364.417 57.833 L 363.167 57.833 363.167 57.260 C 363.167 56.521,362.972 56.414,362.515 56.901 C 362.313 57.115,361.852 57.425,361.489 57.588 C 360.775 57.910,360.687 58.111,361.375 57.849 C 361.607 57.761,362.067 57.451,362.398 57.161 L 363.000 56.632 363.000 57.316 L 363.000 58.000 364.417 58.000 L 365.833 58.000 365.833 51.417 L 365.833 44.833 364.417 44.833 L 363.000 44.833 363.000 45.427 M369.540 51.375 L 369.583 57.917 370.946 57.965 L 372.308 58.013 372.365 53.715 C 372.412 50.126,372.467 49.313,372.702 48.792 C 373.047 48.024,372.949 47.971,372.546 48.708 C 372.289 49.179,372.243 49.811,372.196 53.542 L 372.142 57.833 370.904 57.833 L 369.667 57.833 369.667 51.417 L 369.667 45.000 370.917 45.000 L 372.167 45.000 372.167 45.686 L 372.167 46.372 372.805 45.811 C 373.156 45.502,373.587 45.155,373.763 45.038 C 374.036 44.858,374.022 44.855,373.667 45.017 C 373.438 45.122,373.044 45.400,372.792 45.635 L 372.333 46.062 372.333 45.448 L 372.333 44.833 370.915 44.833 L 369.496 44.833 369.540 51.375 M377.533 45.450 C 377.287 46.254,377.406 46.373,377.667 45.583 C 377.777 45.250,377.834 44.945,377.795 44.906 C 377.755 44.866,377.637 45.111,377.533 45.450 M382.136 45.172 C 381.798 45.351,381.477 45.568,381.424 45.656 C 381.346 45.781,382.698 45.117,382.986 44.888 C 383.207 44.713,382.659 44.896,382.136 45.172 M387.181 44.887 C 387.446 45.090,388.500 45.640,388.500 45.575 C 388.500 45.464,387.451 44.835,387.264 44.834 C 387.180 44.834,387.142 44.857,387.181 44.887 M333.667 45.583 C 333.283 45.904,333.032 46.164,333.109 46.160 C 333.267 46.152,334.609 45.000,334.460 45.000 C 334.408 45.000,334.051 45.262,333.667 45.583 M342.792 45.262 C 342.145 45.613,342.219 45.734,342.875 45.400 C 343.503 45.080,343.614 44.997,343.403 45.007 C 343.319 45.010,343.044 45.125,342.792 45.262 M283.358 45.651 L 283.333 46.218 282.958 45.901 L 282.583 45.583 282.904 45.962 C 283.293 46.421,283.554 46.231,283.455 45.562 C 283.387 45.112,283.382 45.117,283.358 45.651 M350.661 45.928 C 350.943 46.381,349.940 48.053,349.458 47.936 C 349.298 47.896,349.208 47.932,349.260 48.016 C 349.469 48.354,349.818 48.119,350.393 47.253 C 351.084 46.212,351.104 46.126,350.723 45.812 C 350.472 45.605,350.467 45.616,350.661 45.928 M354.273 46.493 C 353.848 46.947,353.500 47.372,353.500 47.437 C 353.500 47.502,353.524 47.524,353.553 47.486 C 353.582 47.448,353.967 47.023,354.409 46.542 C 354.851 46.060,355.175 45.667,355.129 45.667 C 355.083 45.667,354.698 46.038,354.273 46.493 M341.221 46.542 C 340.846 46.931,340.453 47.438,340.348 47.667 L 340.157 48.083 340.454 47.667 C 340.617 47.438,341.041 46.931,341.396 46.542 C 341.752 46.152,342.011 45.833,341.973 45.833 C 341.934 45.833,341.596 46.152,341.221 46.542 M380.573 46.375 L 380.083 46.917 380.625 46.427 C 381.130 45.971,381.243 45.833,381.115 45.833 C 381.086 45.833,380.842 46.077,380.573 46.375 M325.999 46.958 C 326.218 47.256,326.422 47.500,326.454 47.500 C 326.580 47.500,326.167 46.875,325.894 46.653 C 325.714 46.507,325.754 46.623,325.999 46.958 M376.952 47.050 C 376.881 47.236,376.704 47.249,376.052 47.115 C 375.147 46.930,374.223 47.048,373.737 47.410 C 373.473 47.607,373.549 47.604,374.167 47.393 C 374.864 47.155,376.056 47.173,376.731 47.432 C 376.938 47.512,377.263 47.041,377.108 46.886 C 377.071 46.849,377.001 46.923,376.952 47.050 M335.711 47.120 C 335.964 47.158,336.339 47.157,336.544 47.117 C 336.749 47.078,336.542 47.046,336.083 47.048 C 335.625 47.049,335.457 47.081,335.711 47.120 M344.882 47.221 C 344.588 47.329,344.251 47.514,344.133 47.633 C 344.014 47.753,344.177 47.719,344.501 47.557 C 345.396 47.110,346.746 47.076,347.915 47.471 C 349.190 47.902,349.321 47.811,348.089 47.350 C 347.060 46.965,345.728 46.911,344.882 47.221 M357.873 47.222 C 357.101 47.503,356.212 48.255,355.914 48.881 C 355.663 49.409,355.663 49.411,355.950 49.000 C 357.088 47.369,358.903 46.760,360.708 47.404 C 361.494 47.685,361.529 47.565,360.755 47.241 C 360.070 46.955,358.636 46.946,357.873 47.222 M383.875 47.329 C 383.485 47.506,383.167 47.693,383.167 47.746 C 383.167 47.799,383.404 47.719,383.694 47.569 C 384.458 47.174,385.941 47.084,386.792 47.381 C 387.643 47.678,387.734 47.581,386.922 47.241 C 386.114 46.904,384.724 46.944,383.875 47.329 M303.746 47.287 L 304.994 47.347 305.043 51.090 L 305.093 54.834 305.088 51.042 L 305.083 47.250 303.791 47.239 L 302.499 47.227 303.746 47.287 M334.203 47.625 C 333.945 47.877,333.888 47.957,334.075 47.802 C 334.263 47.647,334.604 47.445,334.833 47.354 C 335.120 47.240,335.160 47.185,334.961 47.177 C 334.802 47.171,334.461 47.373,334.203 47.625 M361.915 48.167 C 362.706 49.091,362.717 49.101,362.536 48.750 C 362.441 48.567,362.151 48.229,361.890 48.001 L 361.417 47.585 361.915 48.167 M387.667 47.719 C 387.667 47.748,387.910 47.991,388.208 48.260 L 388.750 48.750 388.260 48.208 C 387.804 47.703,387.667 47.590,387.667 47.719 M352.899 48.599 C 352.762 48.928,352.672 49.267,352.700 49.351 C 352.728 49.435,352.873 49.165,353.022 48.752 C 353.344 47.856,353.256 47.746,352.899 48.599 M333.328 48.676 C 333.228 48.864,333.170 49.093,333.200 49.183 C 333.230 49.274,333.341 49.120,333.446 48.841 C 333.665 48.260,333.600 48.169,333.328 48.676 M381.813 49.425 C 381.628 49.841,381.505 50.265,381.539 50.367 C 381.573 50.469,381.757 50.128,381.948 49.609 C 382.364 48.478,382.281 48.365,381.813 49.425 M270.073 53.333 C 270.073 55.854,270.096 56.885,270.125 55.625 C 270.153 54.365,270.153 52.302,270.125 51.042 C 270.096 49.781,270.073 50.813,270.073 53.333 M342.554 49.458 C 342.409 49.802,342.267 50.571,342.238 51.167 L 342.184 52.250 342.325 51.161 C 342.402 50.562,342.582 49.793,342.724 49.453 C 342.867 49.112,342.945 48.833,342.900 48.833 C 342.854 48.833,342.698 49.115,342.554 49.458 M378.827 49.525 C 378.582 50.432,378.685 53.294,378.978 53.750 L 379.192 54.083 379.071 53.750 C 378.856 53.158,378.791 50.262,378.978 49.588 C 379.077 49.229,379.127 48.905,379.090 48.868 C 379.052 48.830,378.934 49.126,378.827 49.525 M388.954 49.452 C 389.135 49.866,389.230 50.542,389.230 51.417 C 389.230 52.291,389.135 52.967,388.954 53.381 C 388.803 53.728,388.749 53.969,388.835 53.916 C 389.079 53.765,389.500 52.182,389.500 51.417 C 389.500 50.652,389.079 49.068,388.835 48.918 C 388.749 48.864,388.803 49.105,388.954 49.452 M339.552 49.608 C 339.361 50.515,339.423 53.003,339.650 53.500 L 339.841 53.917 339.752 53.463 C 339.520 52.285,339.481 50.996,339.648 50.097 C 339.852 49.008,339.769 48.585,339.552 49.608 M321.083 50.167 L 317.583 50.260 321.032 50.297 C 323.191 50.320,324.519 50.271,324.583 50.167 C 324.640 50.075,324.663 50.016,324.635 50.037 C 324.607 50.057,323.008 50.115,321.083 50.167 M363.083 51.417 C 363.083 52.207,363.132 52.680,363.192 52.468 C 363.251 52.257,363.300 51.783,363.300 51.417 C 363.300 51.050,363.251 50.577,363.192 50.365 C 363.132 50.154,363.083 50.627,363.083 51.417 M327.375 51.417 C 327.377 51.783,327.411 51.914,327.451 51.706 C 327.491 51.499,327.490 51.199,327.448 51.040 C 327.406 50.880,327.374 51.050,327.375 51.417 M342.345 52.531 C 342.330 52.884,342.649 53.740,342.755 53.634 C 342.799 53.590,342.727 53.261,342.596 52.902 C 342.464 52.543,342.352 52.376,342.345 52.531 M381.566 52.597 C 381.621 52.742,381.667 52.953,381.667 53.065 C 381.667 53.178,381.778 53.415,381.913 53.593 C 382.122 53.867,382.120 53.795,381.898 53.125 C 381.753 52.690,381.597 52.333,381.550 52.333 C 381.503 52.333,381.510 52.452,381.566 52.597 M317.680 52.967 C 317.665 53.208,318.128 54.167,318.259 54.167 C 318.304 54.167,318.238 53.960,318.110 53.708 C 317.983 53.456,317.837 53.137,317.786 53.000 C 317.724 52.832,317.689 52.821,317.680 52.967 M355.502 53.106 C 355.492 54.207,357.721 55.836,359.227 55.830 C 359.997 55.826,361.500 55.335,361.500 55.087 C 361.500 55.035,361.256 55.123,360.958 55.283 C 359.347 56.150,356.940 55.423,356.001 53.784 C 355.727 53.307,355.502 53.002,355.502 53.106 M352.667 53.505 C 352.667 53.742,353.131 54.833,353.231 54.833 C 353.276 54.833,353.198 54.496,353.058 54.083 C 352.811 53.360,352.667 53.146,352.667 53.505 M362.176 54.292 C 361.871 54.727,361.763 54.957,361.936 54.803 C 362.238 54.533,362.916 53.500,362.792 53.500 C 362.758 53.500,362.481 53.856,362.176 54.292 M382.436 54.423 C 382.589 54.656,382.872 54.928,383.065 55.028 C 383.301 55.149,383.228 55.010,382.842 54.604 C 382.165 53.892,382.056 53.843,382.436 54.423 M388.073 54.708 L 387.583 55.250 388.125 54.760 C 388.630 54.304,388.743 54.167,388.615 54.167 C 388.586 54.167,388.342 54.410,388.073 54.708 M340.002 54.417 C 339.999 54.921,341.210 56.444,342.083 57.036 C 342.358 57.222,342.224 57.056,341.784 56.668 C 341.344 56.279,340.763 55.576,340.494 55.105 C 340.224 54.635,340.003 54.325,340.002 54.417 M315.583 55.000 C 315.726 55.275,315.879 55.500,315.925 55.500 C 315.971 55.500,315.892 55.275,315.750 55.000 C 315.608 54.725,315.454 54.500,315.408 54.500 C 315.362 54.500,315.441 54.725,315.583 55.000 M349.240 54.761 C 348.922 55.017,348.922 55.019,349.250 54.855 C 349.521 54.719,349.656 54.771,349.972 55.135 L 350.361 55.583 350.002 55.042 C 349.583 54.408,349.648 54.432,349.240 54.761 M379.651 55.304 C 379.752 55.493,379.917 55.699,380.018 55.761 C 380.148 55.842,380.148 55.776,380.016 55.529 C 379.914 55.340,379.749 55.135,379.649 55.073 C 379.518 54.992,379.519 55.057,379.651 55.304 M383.592 55.348 C 383.880 55.813,385.958 55.962,386.750 55.573 C 387.025 55.439,387.100 55.377,386.917 55.436 C 386.160 55.680,384.889 55.688,384.211 55.453 C 383.823 55.318,383.545 55.271,383.592 55.348 M312.429 55.667 C 312.490 55.896,312.610 56.196,312.695 56.333 C 312.802 56.507,312.815 56.456,312.738 56.167 C 312.676 55.938,312.557 55.637,312.472 55.500 C 312.365 55.326,312.351 55.377,312.429 55.667 M344.750 55.539 C 344.941 55.659,345.615 55.749,346.333 55.749 C 347.051 55.749,347.725 55.659,347.917 55.539 C 348.214 55.352,348.195 55.343,347.750 55.456 C 347.475 55.526,346.837 55.583,346.333 55.583 C 345.829 55.583,345.192 55.526,344.917 55.456 C 344.471 55.343,344.453 55.352,344.750 55.539 M353.642 55.583 C 353.808 55.921,354.702 56.802,355.173 57.092 C 355.314 57.179,355.209 57.055,354.940 56.817 C 354.670 56.579,354.231 56.129,353.964 55.817 C 353.697 55.505,353.552 55.400,353.642 55.583 M309.377 55.620 C 309.631 55.658,310.006 55.657,310.211 55.617 C 310.416 55.578,310.208 55.546,309.750 55.548 C 309.292 55.549,309.124 55.581,309.377 55.620 M316.583 56.333 C 316.941 56.700,317.272 57.000,317.318 57.000 C 317.363 57.000,317.108 56.700,316.750 56.333 C 316.392 55.967,316.062 55.667,316.016 55.667 C 315.970 55.667,316.225 55.967,316.583 56.333 M321.125 55.787 C 321.423 55.824,321.910 55.824,322.208 55.787 C 322.506 55.750,322.262 55.720,321.667 55.720 C 321.071 55.720,320.827 55.750,321.125 55.787 M350.578 56.055 C 350.732 56.315,350.816 56.637,350.765 56.772 C 350.712 56.910,350.743 56.973,350.835 56.915 C 351.098 56.753,351.028 56.401,350.649 55.977 L 350.297 55.583 350.578 56.055 M380.545 56.437 C 380.731 56.739,382.387 57.798,382.833 57.901 C 383.104 57.963,383.045 57.903,382.667 57.731 C 382.346 57.585,381.712 57.193,381.258 56.860 C 380.803 56.527,380.483 56.337,380.545 56.437 M283.372 57.167 C 283.372 57.487,283.406 57.619,283.448 57.458 C 283.490 57.298,283.490 57.035,283.448 56.875 C 283.406 56.715,283.372 56.846,283.372 57.167 M387.667 57.583 C 387.254 57.804,387.029 57.988,387.167 57.992 C 387.426 57.999,388.500 57.403,388.500 57.252 C 388.500 57.135,388.512 57.131,387.667 57.583 M342.667 57.414 C 342.667 57.521,343.819 58.001,344.062 57.996 C 344.165 57.994,343.923 57.844,343.523 57.663 C 342.748 57.311,342.667 57.288,342.667 57.414 M349.250 57.667 C 348.883 57.836,348.642 57.981,348.714 57.988 C 348.911 58.006,350.000 57.530,350.000 57.425 C 350.000 57.312,350.051 57.296,349.250 57.667 M355.667 57.426 C 355.667 57.560,356.696 58.018,356.867 57.961 C 356.965 57.928,356.735 57.780,356.356 57.631 C 355.977 57.482,355.667 57.390,355.667 57.426 M345.961 58.287 C 346.261 58.325,346.711 58.324,346.961 58.286 C 347.212 58.248,346.967 58.217,346.417 58.218 C 345.867 58.219,345.662 58.250,345.961 58.287 M358.544 58.286 C 358.797 58.325,359.172 58.324,359.377 58.284 C 359.582 58.244,359.375 58.213,358.917 58.214 C 358.458 58.216,358.291 58.248,358.544 58.286 M384.711 58.286 C 384.964 58.325,385.339 58.324,385.544 58.284 C 385.749 58.244,385.542 58.213,385.083 58.214 C 384.625 58.216,384.457 58.248,384.711 58.286 " stroke="none" fill="#fcc761" fill-rule="evenodd"></path><path id="path6" d="M249.706 51.375 L 249.667 58.000 251.069 58.000 L 252.471 58.000 252.536 53.708 C 252.572 51.348,252.659 49.267,252.730 49.083 L 252.859 48.750 252.638 49.083 C 252.473 49.332,252.402 50.488,252.360 53.625 L 252.304 57.833 251.071 57.833 L 249.837 57.833 249.792 51.292 L 249.746 44.750 249.706 51.375 M252.357 45.458 C 252.328 46.313,252.397 46.320,253.250 45.555 C 253.617 45.226,253.766 45.035,253.581 45.130 C 253.397 45.225,253.097 45.468,252.915 45.671 L 252.583 46.039 252.482 45.394 L 252.381 44.750 252.357 45.458 M267.181 44.887 C 267.446 45.090,268.500 45.640,268.500 45.575 C 268.500 45.464,267.451 44.835,267.264 44.834 C 267.180 44.834,267.142 44.857,267.181 44.887 M281.347 44.887 C 281.612 45.090,282.667 45.640,282.667 45.575 C 282.667 45.464,281.618 44.835,281.431 44.834 C 281.347 44.834,281.309 44.857,281.347 44.887 M291.583 45.110 C 290.966 45.435,290.195 46.139,289.968 46.583 C 289.875 46.767,290.039 46.633,290.332 46.287 C 290.626 45.940,291.215 45.475,291.641 45.253 C 292.068 45.031,292.342 44.848,292.250 44.848 C 292.158 44.847,291.858 44.965,291.583 45.110 M302.167 46.083 C 302.167 46.771,302.223 47.333,302.292 47.333 C 302.360 47.333,302.417 46.771,302.417 46.083 C 302.417 45.396,302.360 44.833,302.292 44.833 C 302.223 44.833,302.167 45.396,302.167 46.083 M333.000 45.417 C 333.000 45.737,333.060 46.000,333.133 46.000 C 333.206 46.000,333.236 45.737,333.198 45.417 C 333.161 45.096,333.101 44.833,333.065 44.833 C 333.029 44.833,333.000 45.096,333.000 45.417 M259.005 45.276 C 259.231 45.427,259.609 45.708,259.843 45.901 C 260.078 46.093,259.974 45.969,259.613 45.625 C 259.252 45.281,258.875 45.000,258.775 45.000 C 258.675 45.000,258.778 45.124,259.005 45.276 M261.917 45.333 C 261.642 45.515,261.492 45.663,261.583 45.662 C 261.750 45.659,262.657 45.010,262.500 45.005 C 262.454 45.003,262.192 45.151,261.917 45.333 M275.789 45.423 C 275.447 45.655,275.167 45.885,275.167 45.934 C 275.167 45.983,275.373 45.879,275.625 45.703 C 275.877 45.528,276.233 45.300,276.417 45.197 C 276.600 45.094,276.674 45.008,276.580 45.005 C 276.487 45.002,276.131 45.190,275.789 45.423 M312.555 46.083 C 312.555 46.725,312.586 46.967,312.622 46.621 C 312.658 46.275,312.657 45.750,312.620 45.455 C 312.583 45.159,312.554 45.442,312.555 46.083 M299.391 45.520 C 299.876 45.776,300.012 45.936,299.948 46.179 C 299.902 46.356,299.932 46.458,300.016 46.407 C 300.434 46.148,299.544 45.149,298.917 45.175 C 298.825 45.178,299.039 45.334,299.391 45.520 M254.250 47.313 C 253.883 47.482,253.434 47.799,253.251 48.018 L 252.919 48.417 253.337 48.050 C 254.779 46.783,257.017 46.912,257.955 48.316 C 258.163 48.628,258.333 48.802,258.333 48.704 C 258.333 47.475,255.787 46.608,254.250 47.313 M263.208 47.248 C 262.910 47.378,262.667 47.521,262.667 47.567 C 262.667 47.612,262.927 47.541,263.245 47.408 C 263.563 47.275,264.127 47.167,264.500 47.167 C 264.873 47.167,265.437 47.275,265.755 47.408 C 266.073 47.541,266.333 47.612,266.333 47.566 C 266.333 47.090,264.097 46.862,263.208 47.248 M278.357 47.191 C 278.049 47.280,277.828 47.384,277.866 47.422 C 277.904 47.460,278.230 47.410,278.590 47.310 C 279.375 47.094,280.623 47.216,281.324 47.579 C 281.604 47.723,281.833 47.799,281.833 47.746 C 281.833 47.234,279.502 46.862,278.357 47.191 M293.524 47.136 C 293.380 47.235,293.714 47.262,294.452 47.209 C 295.467 47.136,296.475 47.254,297.584 47.575 C 297.767 47.628,297.654 47.548,297.333 47.397 C 296.668 47.085,293.878 46.893,293.524 47.136 M299.243 47.514 C 299.052 47.883,298.899 47.997,298.697 47.920 C 298.483 47.839,298.463 47.860,298.610 48.009 C 298.717 48.116,298.886 48.154,298.987 48.092 C 299.188 47.967,299.724 47.000,299.592 47.000 C 299.546 47.000,299.389 47.231,299.243 47.514 M320.875 47.115 C 321.035 47.157,321.298 47.157,321.458 47.115 C 321.619 47.073,321.487 47.039,321.167 47.039 C 320.846 47.039,320.715 47.073,320.875 47.115 M269.940 47.833 C 270.004 48.063,270.086 50.406,270.123 53.042 L 270.190 57.833 268.845 57.833 L 267.500 57.833 267.492 53.625 C 267.486 50.272,267.435 49.315,267.240 48.917 C 267.105 48.642,267.051 48.567,267.120 48.750 C 267.190 48.933,267.284 51.071,267.331 53.500 L 267.417 57.917 268.833 57.917 L 270.250 57.917 270.246 53.083 C 270.243 49.551,270.185 48.138,270.033 47.833 L 269.824 47.417 269.940 47.833 M261.832 48.375 C 261.563 48.815,261.350 49.414,261.554 49.153 C 261.803 48.836,262.340 47.833,262.261 47.833 C 262.206 47.833,262.013 48.077,261.832 48.375 M276.717 48.208 C 276.529 48.415,276.281 48.771,276.167 49.000 C 275.924 49.488,276.091 49.326,276.726 48.458 C 277.238 47.759,277.234 47.640,276.717 48.208 M282.773 48.917 C 283.158 49.575,283.167 49.585,283.167 49.380 C 283.167 49.283,283.012 49.027,282.823 48.810 L 282.480 48.417 282.773 48.917 M292.793 49.292 C 293.009 49.498,293.275 49.664,293.384 49.662 C 293.494 49.659,293.433 49.573,293.250 49.472 C 293.067 49.370,292.800 49.203,292.658 49.102 C 292.517 49.000,292.577 49.085,292.793 49.292 M314.723 51.333 C 314.723 52.021,314.752 52.302,314.788 51.958 C 314.824 51.615,314.824 51.052,314.788 50.708 C 314.752 50.365,314.723 50.646,314.723 51.333 M258.538 54.125 L 258.500 58.000 259.958 57.966 L 261.417 57.932 260.045 57.876 L 258.673 57.820 258.625 54.035 L 258.577 50.250 258.538 54.125 M283.388 51.417 C 283.389 52.058,283.419 52.300,283.455 51.955 C 283.491 51.609,283.490 51.084,283.454 50.788 C 283.417 50.492,283.387 50.775,283.388 51.417 M297.500 50.453 C 297.637 50.504,297.956 50.650,298.208 50.777 C 298.460 50.904,298.667 50.971,298.667 50.925 C 298.667 50.794,297.708 50.332,297.467 50.346 C 297.321 50.355,297.332 50.390,297.500 50.453 M333.071 54.083 C 333.072 56.192,333.095 57.031,333.125 55.949 C 333.154 54.867,333.154 53.142,333.124 52.116 C 333.095 51.090,333.071 51.975,333.071 54.083 M292.750 52.421 C 293.117 52.542,293.604 52.640,293.833 52.640 C 294.063 52.639,293.837 52.535,293.333 52.410 C 292.187 52.124,291.866 52.130,292.750 52.421 M317.775 52.625 C 317.733 52.694,319.135 52.731,320.891 52.707 C 326.849 52.628,327.431 52.570,322.635 52.535 C 320.005 52.516,317.818 52.556,317.775 52.625 M294.708 52.782 C 294.869 52.823,295.131 52.823,295.292 52.782 C 295.452 52.740,295.321 52.705,295.000 52.705 C 294.679 52.705,294.548 52.740,294.708 52.782 M300.379 54.000 C 300.379 54.413,300.411 54.581,300.451 54.375 C 300.491 54.169,300.491 53.831,300.451 53.625 C 300.411 53.419,300.379 53.587,300.379 54.000 M282.261 54.464 C 281.673 55.168,281.662 55.198,282.150 54.750 C 282.613 54.326,283.120 53.654,282.964 53.672 C 282.938 53.675,282.621 54.031,282.261 54.464 M273.178 54.083 C 273.178 54.175,273.286 54.438,273.417 54.667 C 273.548 54.896,273.655 55.008,273.655 54.917 C 273.655 54.825,273.548 54.563,273.417 54.333 C 273.286 54.104,273.178 53.992,273.178 54.083 M318.333 54.219 C 318.333 54.248,318.577 54.491,318.875 54.760 L 319.417 55.250 318.927 54.708 C 318.471 54.203,318.333 54.090,318.333 54.219 M290.043 54.545 C 289.956 54.658,289.833 54.862,289.768 55.000 C 289.704 55.137,289.777 55.081,289.930 54.874 L 290.208 54.499 290.812 54.847 C 291.167 55.051,291.279 55.081,291.083 54.919 C 290.489 54.425,290.213 54.326,290.043 54.545 M277.083 54.922 C 277.358 55.147,277.654 55.332,277.741 55.333 C 277.827 55.333,277.644 55.146,277.333 54.917 C 276.608 54.382,276.429 54.386,277.083 54.922 M278.631 55.697 C 278.788 55.759,279.217 55.810,279.583 55.810 C 279.950 55.810,280.378 55.759,280.535 55.697 C 280.692 55.634,280.264 55.583,279.583 55.583 C 278.903 55.583,278.474 55.634,278.631 55.697 M292.864 55.692 C 293.378 55.836,295.675 55.840,296.034 55.697 C 296.191 55.634,295.455 55.583,294.399 55.583 C 293.343 55.583,292.652 55.632,292.864 55.692 M274.660 56.375 C 275.350 57.111,275.500 57.243,275.500 57.118 C 275.500 57.091,275.144 56.735,274.708 56.326 L 273.917 55.583 274.660 56.375 M289.002 56.081 C 288.737 56.400,288.880 56.762,289.366 57.000 C 289.727 57.178,289.725 57.169,289.333 56.852 C 288.970 56.558,288.944 56.471,289.126 56.174 C 289.371 55.777,289.299 55.723,289.002 56.081 M282.171 57.425 C 281.853 57.650,281.666 57.833,281.755 57.833 C 281.844 57.832,282.142 57.647,282.417 57.422 C 283.059 56.896,282.919 56.897,282.171 57.425 M297.750 57.594 C 297.292 57.815,297.013 57.997,297.132 57.998 C 297.376 58.000,298.667 57.369,298.667 57.247 C 298.667 57.146,298.732 57.122,297.750 57.594 M290.500 57.583 C 290.729 57.714,291.029 57.821,291.167 57.821 C 291.304 57.821,291.164 57.711,290.856 57.577 C 290.146 57.269,289.956 57.272,290.500 57.583 M283.333 57.875 C 283.333 57.944,283.971 58.000,284.750 58.000 C 285.529 58.000,286.167 57.944,286.167 57.875 C 286.167 57.806,285.529 57.750,284.750 57.750 C 283.971 57.750,283.333 57.806,283.333 57.875 M278.795 58.287 C 279.094 58.325,279.544 58.324,279.795 58.286 C 280.045 58.248,279.800 58.217,279.250 58.218 C 278.700 58.219,278.495 58.250,278.795 58.287 M293.955 58.287 C 294.250 58.324,294.775 58.324,295.121 58.288 C 295.467 58.252,295.225 58.222,294.583 58.221 C 293.942 58.221,293.659 58.250,293.955 58.287 " stroke="none" fill="#fc6067" fill-rule="evenodd"></path><path id="path7" d="" stroke="none" fill="#547464" fill-rule="evenodd"></path><path id="path8" d="M27.000 35.417 C 27.498 35.921,27.943 36.333,27.989 36.333 C 28.034 36.333,27.665 35.921,27.167 35.417 C 26.669 34.912,26.224 34.500,26.178 34.500 C 26.132 34.500,26.502 34.912,27.000 35.417 M29.750 38.167 C 30.294 38.717,30.777 39.167,30.823 39.167 C 30.869 39.167,30.461 38.717,29.917 38.167 C 29.372 37.617,28.890 37.167,28.844 37.167 C 28.798 37.167,29.206 37.617,29.750 38.167 M37.345 49.417 C 37.345 49.508,37.452 49.771,37.583 50.000 C 37.714 50.229,37.822 50.342,37.822 50.250 C 37.822 50.158,37.714 49.896,37.583 49.667 C 37.452 49.438,37.345 49.325,37.345 49.417 " stroke="none" fill="#8c8444" fill-rule="evenodd"></path></g></svg>