<svg width="24" height="24" viewBox="0 0 24 24" fill="none" xmlns="http://www.w3.org/2000/svg">
<path d="M8.9872 20.5152L10.581 16.7964C10.6487 16.6375 10.6629 16.461 10.6216 16.2933C10.5803 16.1256 10.4856 15.9759 10.3519 15.8667L8.33973 14.2198C9.55837 11.6351 11.6384 9.55505 14.2231 8.3364L15.87 10.3485C15.979 10.4826 16.1287 10.5775 16.2965 10.6188C16.4642 10.6601 16.6409 10.6457 16.7997 10.5777L20.5185 8.98388C20.6897 8.90921 20.8295 8.77714 20.9137 8.61045C20.998 8.44376 21.0214 8.2529 20.98 8.07077L20.1832 4.61759C20.1426 4.442 20.0437 4.28533 19.9027 4.17317C19.7616 4.061 19.5867 3.99996 19.4065 4C10.8898 4 4 10.9031 4 19.4065C3.99989 19.5868 4.0609 19.7618 4.17307 19.9029C4.28524 20.044 4.44194 20.1429 4.61759 20.1835L8.07078 20.9804C8.25379 21.0215 8.44542 20.9976 8.61268 20.9127C8.77994 20.8278 8.91238 20.6872 8.9872 20.5152V20.5152Z" fill="#ED1C24"/>
</svg>
